<?xml version="1.0" encoding="iso-8859-1"?>
<!-- Uploaded to: SVG Repo, www.svgrepo.com, Generator: SVG Repo Mixer Tools -->
<svg height="800px" width="800px" version="1.1" id="Layer_1" xmlns="http://www.w3.org/2000/svg" xmlns:xlink="http://www.w3.org/1999/xlink" 
	 viewBox="0 0 512.001 512.001" xml:space="preserve">
<path style="fill:#3A5D74;" d="M332.161,252.856h-21.84c-11.097,18.415-31.252,30.751-54.32,30.751s-43.224-12.335-54.32-30.751
	h-24.923c-24.918,0-45.121,20.199-45.121,45.118v171.328h245.64V297.974C377.277,273.057,357.079,252.856,332.161,252.856z"/>
<g style="opacity:0.1;">
	<path style="fill:#231F20;" d="M194.52,471.807c-4.651,0-8.421-3.77-8.421-8.421V335.649c0-4.651,3.77-8.421,8.421-8.421
		s8.421,3.77,8.421,8.421v127.738C202.941,468.036,199.171,471.807,194.52,471.807z"/>
</g>
<g style="opacity:0.1;">
	<path style="fill:#231F20;" d="M317.483,471.807c-4.651,0-8.421-3.77-8.421-8.421V335.649c0-4.651,3.77-8.421,8.421-8.421
		s8.421,3.77,8.421,8.421v127.738C325.904,468.036,322.133,471.807,317.483,471.807z"/>
</g>
<path style="fill:#59C384;" d="M386.733,130.732C386.733,58.53,328.205,0,256.001,0c-72.2,0-130.733,58.53-130.733,130.732
	c0,51.331,29.59,95.744,72.64,117.136c9.799,22.36,32.117,37.986,58.092,37.986c25.978,0,48.294-15.626,58.096-37.986
	C357.143,226.476,386.733,182.063,386.733,130.732z"/>
<g>
	<path style="fill:#3A5D74;" d="M338.66,107.804c-13.315-10.384-35.299-4.461-49.092,13.232
		c-13.796,17.692-14.182,40.452-0.865,50.836c13.315,10.385,35.297,4.461,49.09-13.23
		C351.593,140.95,351.978,118.189,338.66,107.804z"/>
	
		<ellipse transform="matrix(-0.7886 0.6149 -0.6149 -0.7886 440.7086 128.1577)" style="fill:#3A5D74;" cx="198.325" cy="139.834" rx="30.574" ry="40.623"/>
</g>
<g>
	<path style="opacity:0.1;fill:#231F20;enable-background:new    ;" d="M306.669,171.873c-13.318-10.384-12.932-33.144,0.865-50.836
		c6.747-8.655,15.454-14.483,24.147-16.975c-13.154-4.443-30.522,2.109-42.112,16.975c-13.796,17.692-14.182,40.452-0.865,50.836
		c6.803,5.305,15.867,6.345,24.945,3.743C311.148,174.771,308.797,173.532,306.669,171.873z"/>
	<path style="opacity:0.1;fill:#231F20;enable-background:new    ;" d="M192.171,158.643c-13.794-17.692-14.182-40.454-0.866-50.838
		c2.129-1.66,4.479-2.898,6.982-3.742c-9.078-2.602-18.141-1.562-24.947,3.742c-13.315,10.385-12.928,33.146,0.866,50.838
		c11.589,14.864,28.955,21.416,42.111,16.973C207.624,173.124,198.918,167.296,192.171,158.643z"/>
</g>
<path style="fill:#3A5D74;" d="M256.001,244.007c-1.265,0-2.532-0.284-3.701-0.857l-22.964-11.237
	c-4.177-2.045-5.907-7.088-3.861-11.265c2.044-4.178,7.088-5.908,11.264-3.862l18.979,9.287l16.017-9.053
	c4.047-2.289,9.187-0.863,11.474,3.187c2.289,4.049,0.863,9.187-3.187,11.475l-19.877,11.237
	C258.861,243.642,257.431,244.007,256.001,244.007z"/>
<g style="opacity:0.1;">
	<path style="fill:#231F20;" d="M194.383,252.856h-17.626c-24.918,0-45.121,20.199-45.121,45.118v171.328h17.626V297.974
		C149.263,273.057,169.465,252.856,194.383,252.856z"/>
</g>
<g style="opacity:0.1;">
	<path style="fill:#231F20;" d="M268.012,272.38c-23.747,0-44.432-13.065-55.294-32.392c-0.122-0.188-0.249-0.404-0.382-0.675
		c-0.099-0.202-0.207-0.392-0.311-0.585c-0.065-0.12-0.129-0.239-0.192-0.359c-2.624-4.545-6.788-6.528-6.788-6.528l0.01-0.009
		c-40.395-22.244-67.775-65.203-67.775-114.573c0-30.141,10.207-57.895,27.345-80.007c-24.28,23.735-39.357,56.844-39.357,93.48
		c0,51.331,29.59,95.744,72.64,117.136c9.799,22.36,32.117,37.986,58.092,37.986c22.071,0,41.494-11.283,52.851-28.39
		C297.819,266.768,283.577,272.38,268.012,272.38z"/>
</g>
<path style="fill:#90C8EC;" d="M381.573,467.056H130.428c-11.757,0-21.29,9.532-21.29,21.29v2.366c0,11.758,9.533,21.29,21.29,21.29
	h56.832h28.074h166.239c11.757,0,21.29-9.532,21.29-21.29v-2.366C402.863,476.588,393.33,467.056,381.573,467.056z"/>
<path style="opacity:0.1;fill:#231F20;enable-background:new    ;" d="M126.764,490.71v-2.366c0-11.758,9.533-21.29,21.29-21.29
	h-17.626c-11.757,0-21.29,9.532-21.29,21.29v2.366c0,11.758,9.533,21.29,21.29,21.29h17.626
	C136.298,512,126.764,502.468,126.764,490.71z"/>
</svg>