<?xml version="1.0" encoding="iso-8859-1"?>
<!-- Uploaded to: SVG Repo, www.svgrepo.com, Generator: SVG Repo Mixer Tools -->
<svg height="800px" width="800px" version="1.1" id="Layer_1" xmlns="http://www.w3.org/2000/svg" xmlns:xlink="http://www.w3.org/1999/xlink" 
	 viewBox="0 0 512.001 512.001" xml:space="preserve">
<path style="fill:#FF4D30;" d="M136.662,416.962c23.923,41.064,68.391,68.68,119.338,68.68c50.946,0,95.415-27.616,119.338-68.68
	H136.662z"/>
<path style="opacity:0.1;fill:#231F20;enable-background:new    ;" d="M155.029,416.962h-18.366
	c23.923,41.064,68.391,68.68,119.338,68.68c3.086,0,6.147-0.106,9.183-0.306C218.109,482.242,177.502,455.538,155.029,416.962z"/>
<path style="fill:#3A5D74;" d="M33.661,366.715v30.119c0,11.74,9.519,21.259,21.26,21.259h402.159
	c11.741,0,21.26-9.519,21.26-21.259v-30.119H33.661"/>
<path style="opacity:0.1;fill:#231F20;enable-background:new    ;" d="M52.027,396.834v-30.119H33.661v30.119
	c0,11.74,9.519,21.259,21.26,21.259h18.366C61.546,418.092,52.027,408.573,52.027,396.834z"/>
<path style="fill:#CAE9F7;" d="M256,147.32c-4.681,0-8.477-3.794-8.477-8.477V76.03c0-4.681,3.795-8.477,8.477-8.477
	s8.477,3.795,8.477,8.477v62.813C264.477,143.524,260.681,147.32,256,147.32z"/>
<path style="fill:#90C8EC;" d="M105.744,264.112h300.512c-12.958-71.24-75.278-125.269-150.256-125.269
	C181.021,138.843,118.701,192.872,105.744,264.112z"/>
<path style="fill:#3A5D74;" d="M333.362,264.112v-31.061c0-11.742-9.519-21.261-21.26-21.261H199.9
	c-11.744,0-21.261,9.519-21.261,21.261v31.061H333.362z"/>
<circle style="fill:#FF4D30;" cx="256" cy="57.068" r="30.709"/>
<g>
	<path style="opacity:0.1;fill:#231F20;enable-background:new    ;" d="M265.183,139.123c-3.039-0.18-6.099-0.28-9.183-0.28
		c-74.979,0-137.299,54.029-150.256,125.269h18.366C136.536,195.802,194.346,143.327,265.183,139.123z"/>
	<path style="opacity:0.1;fill:#231F20;enable-background:new    ;" d="M218.267,211.79H199.9c-11.744,0-21.261,9.519-21.261,21.261
		v31.061h18.366v-31.061C197.007,221.309,206.524,211.79,218.267,211.79z"/>
	<path style="opacity:0.1;fill:#231F20;enable-background:new    ;" d="M243.655,57.068c0-13.76,9.054-25.404,21.528-29.308
		c-2.9-0.909-5.985-1.398-9.183-1.398c-16.958,0-30.711,13.748-30.711,30.706c0,16.963,13.753,30.709,30.711,30.709
		c3.199,0,6.283-0.491,9.183-1.398C252.71,82.476,243.655,70.831,243.655,57.068z"/>
</g>
<path style="fill:#578CAD;" d="M382.844,368.975h107.897c11.741,0,21.26-9.519,21.26-21.259v-17.598
	c0-37.704-30.564-68.267-68.267-68.267H68.266C30.564,261.852,0,292.415,0,330.118v17.598c0,11.74,9.519,21.259,21.259,21.259
	H382.844"/>
<path style="opacity:0.1;fill:#231F20;enable-background:new    ;" d="M18.366,347.716v-17.598
	c0-37.704,30.564-68.267,68.266-68.267H68.266C30.564,261.852,0,292.415,0,330.118v17.598c0,11.74,9.519,21.259,21.259,21.259
	h18.366C27.885,368.975,18.366,359.456,18.366,347.716z"/>
<path style="fill:#FF9737;" d="M449.107,323.889H62.892c-4.681,0-8.477-3.794-8.477-8.477c0-4.683,3.795-8.477,8.477-8.477h386.215
	c4.683,0,8.477,3.794,8.477,8.477C457.584,320.094,453.789,323.889,449.107,323.889z"/>
</svg>